<svg id="svg" xmlns="http://www.w3.org/2000/svg" xmlns:xlink="http://www.w3.org/1999/xlink" width="400" height="400" viewBox="0, 0, 400,400"><g id="svgg"><path id="path0" d="M33.333 200.000 C 33.333 295.096,34.137 308.916,39.547 306.840 C 42.965 305.529,80.465 283.860,122.881 258.687 L 200.000 212.917 200.000 260.625 C 200.000 286.865,201.212 308.333,202.694 308.333 C 206.828 308.333,391.474 202.372,391.474 200.000 C 391.474 197.628,206.828 91.667,202.694 91.667 C 201.212 91.667,200.000 113.135,200.000 139.375 L 200.000 187.083 122.881 141.313 C 80.465 116.140,42.965 94.471,39.547 93.160 C 34.137 91.084,33.333 104.904,33.333 200.000 " stroke="none" fill="#fff" fill-rule="evenodd"></path></g></svg>