<svg id="svg" xmlns="http://www.w3.org/2000/svg" xmlns:xlink="http://www.w3.org/1999/xlink" width="400" height="400" viewBox="0, 0, 400,400"><g id="svgg"><path id="path0" d="M101.202 144.895 C 50.300 174.057,8.652 198.854,8.650 200.000 C 8.646 202.315,193.162 308.333,197.195 308.333 C 198.592 308.333,200.264 287.135,200.909 261.227 L 202.083 214.120 281.250 261.086 C 324.792 286.918,361.823 308.116,363.542 308.193 C 365.260 308.270,366.667 259.583,366.667 200.000 C 366.667 140.417,365.260 91.730,363.542 91.807 C 361.823 91.884,324.792 113.082,281.250 138.914 L 202.083 185.880 200.909 138.773 C 200.264 112.865,198.389 91.713,196.743 91.770 C 195.097 91.827,152.103 115.733,101.202 144.895 " stroke="none" fill="#fff" fill-rule="evenodd"></path></g></svg>